<svg version="1.1" xmlns="http://www.w3.org/2000/svg" viewBox="0 0 288.0068597560985 344.33784298780483" width="288.0068597560985" height="344.33784298780483"><!-- svg-source:excalidraw --><metadata></metadata><defs><style class="style-fonts">
      </style></defs><rect x="0" y="0" width="288.0068597560985" height="344.33784298780483" fill="none"></rect><g stroke-linecap="round" transform="translate(10 10) rotate(0 134.00342987804925 162.16892149390242)"><path d="M0 0 C95.4 0.14, 191.29 -1.07, 268.01 0 M0 0 C99.5 -0.58, 197.14 -1.27, 268.01 0 M268.01 0 C269.87 70.79, 270.13 140.09, 268.01 324.34 M268.01 0 C268.64 116.14, 269.32 233.66, 268.01 324.34 M268.01 324.34 C161.45 324.62, 58.51 326.61, 0 324.34 M268.01 324.34 C189.37 323.09, 110.12 323.62, 0 324.34 M0 324.34 C0.69 215.42, -0.88 104.28, 0 0 M0 324.34 C-0.23 248.63, 0.18 172.01, 0 0" stroke="#000000" stroke-width="1" fill="none"></path></g></svg>