<svg xmlns="http://www.w3.org/2000/svg" viewBox="10 9 114 64" width="114" height="64">
  <path d="M14.12 13.58q0 0 0 0m0 0q0 0 0 0m-3.8 16.57c4.09-5.48 8.47-12.73 17.05-19.62M10.32 30.15c3.28-3.54 8.28-8.4 17.05-19.62M10.45 42.19c7.42-9.34 16.77-17.67 27.55-31.7m-27.55 31.7C19.96 31.67 30.17 19.5 38 10.49M10.58 54.23C23.16 39.51 35.11 26.6 48.63 10.46M10.58 54.23c9.92-10.72 18.17-21.98 38.05-43.77m-36.6 54.3C27.59 47.4 45.17 26.45 59.26 10.42M12.03 64.76c14.06-14.32 25.46-29.27 47.23-54.34M17.41 70.77C28 59.61 38.93 47.23 69.89 10.39M17.41 70.77C37.4 47.74 55.68 25.61 69.89 10.39M26.73 72.24c15.04-16.37 28.82-34.82 53.79-61.88M26.73 72.24C49.39 46.27 69.6 22.41 80.52 10.36M37.36 72.21c16.09-21.26 35.6-40.92 53.79-61.89M37.36 72.21c12.08-14.72 24.99-27.96 53.79-61.89M47.99 72.17c13.88-14.99 24.15-30.9 53.79-61.88M47.99 72.17c14.07-16.45 27.25-31.83 53.79-61.88M58.62 72.14c14.22-18.54 31-35.19 53.14-61.13M58.62 72.14c17.53-20.77 36.74-42.39 53.14-61.13M69.25 72.1c14.93-21.7 34.41-37.95 49.86-57.35M69.25 72.1c15.77-19.21 33.13-37.08 49.86-57.35M79.88 72.07c11.17-16.61 24.58-29.91 43.3-49.81m-43.3 49.81c14.76-17.39 30.1-34.55 43.3-49.81M90.51 72.03c9.39-9.58 15.89-16.78 32.8-37.73m-32.8 37.73c9.61-11.31 19.43-22.03 32.8-37.73M101.14 72c7.57-6.87 16.07-16.19 22.3-25.66M101.14 72c7.62-8.56 14.76-16.35 22.3-25.66m-11.02 24.87c4.88-4.77 8.26-9.61 10.5-12.07m-10.5 12.07c2.52-2.27 4.92-6.19 10.5-12.07M16.24 69.89q0 0 0 0m0 0q0 0 0 0m14.3 1.84c-6.02-5.49-13.15-12.77-19.62-17.06m19.62 17.06C25.22 67.2 19 62.76 10.92 54.67m31.66 16.92c-13.31-11.54-26.22-19.92-31.7-27.55m31.7 27.55c-12.12-10.57-24.69-20.7-31.7-27.55m43.74 27.42C38.21 58.15 24.41 44.51 10.85 33.41m43.77 38.05C37.98 57.71 22.76 43.89 10.85 33.41m55.81 37.92C55.84 59.11 42.69 50.26 10.82 22.78m55.84 48.55C49.14 54.6 30.26 39.64 10.82 22.78m68.64 49.07C57.37 53.34 34.84 34.88 13.8 14.77m65.66 57.08C53.43 48.26 28.34 27.19 13.8 14.77m77.7 56.95c-16.54-12-30.82-26.4-70.94-61.67M91.5 71.72C71.06 51.69 47.76 33.44 20.56 10.05m82.98 61.53C86 57.15 68.35 41.96 31.84 9.26m71.7 62.32C80.91 53.96 60.53 34.7 31.84 9.26m82.23 60.88C96.08 56.23 78.04 39.46 43.89 9.13m70.18 61.01C97.8 57.97 83.55 42.9 43.89 9.13m76.94 56.28C103.31 52.92 90.81 38.12 56.68 9.65m64.15 55.76C99.07 45.78 75.48 24.87 56.68 9.65m66.38 47.1C111.39 46.9 98.03 35.06 68.72 9.52m54.34 47.23C102.14 37.11 79.88 18.46 68.72 9.52m55.06 37.26c-12.49-11.14-23.3-20.83-43.02-37.4m43.02 37.4c-9.39-7.61-18.19-17.07-43.02-37.4m42.99 26.77c-8.18-4.52-12.07-12.52-30.95-26.9m30.95 26.9c-6.96-5.9-15.91-14.45-30.95-26.9m30.16 15.61c-2.49-4.49-6.69-7.38-18.12-15.74m18.12 15.74c-5.49-3.73-10.11-8.73-18.12-15.74" stroke="#868e96" fill="none" stroke-linecap="round"/>
</svg>