<svg xmlns="http://www.w3.org/2000/svg" viewBox="0 0 30.805 56.373" width="30.805" height="56.373"><path fill="none" d="M0 0h30.805v56.373H0z"/><g stroke-linecap="round"><path d="M15.55 10.52c1.1-.02 2.54.38 3.34.96.81.58 1.45 1.56 1.5 2.54.04.97-.62 2.52-1.23 3.29s-1.43 1.01-2.41 1.3c-.97.29-2.36.85-3.46.44-1.09-.41-2.5-1.88-3.1-2.87s-.75-2.24-.49-3.09c.26-.86 1.09-1.53 2.04-2.04.95-.5 3-.83 3.67-.99s.33-.04.36.05m-1.86.64c.98-.07 2.62.08 3.66.54 1.03.45 2.13 1.31 2.56 2.21.42.91.44 2.36-.01 3.22-.45.85-1.59 1.44-2.7 1.91s-2.88 1.12-3.97.9-2.01-1.31-2.57-2.22c-.55-.91-.93-2.31-.78-3.24.14-.94.78-1.75 1.65-2.38.88-.63 3.09-1.18 3.59-1.41.51-.22-.33.03-.55.06"/><path d="M15.98 9.68c1.03.17 2.19 1.24 2.99 2.15s1.83 2.3 1.82 3.32c-.01 1.01-1.02 2.08-1.89 2.78-.86.69-2.16 1.36-3.32 1.39s-2.81-.69-3.64-1.23c-.84-.54-1.07-1.19-1.36-2s-.69-1.86-.39-2.85c.31-.99 1.18-2.66 2.24-3.09 1.07-.43 3.45.42 4.14.51.7.08.05-.08.03 0m-.95-.15c1.06-.16 2.65-.39 3.33.04.69.43.6 1.56.8 2.53.19.97.83 2.26.4 3.28-.44 1.03-1.84 2.38-3.01 2.86s-3.01.44-4.02.02-1.44-1.6-2.04-2.55c-.6-.94-1.57-2.11-1.57-3.1 0-1 .63-2.36 1.59-2.88.96-.51 3.43-.08 4.17-.19.75-.11.33-.43.27-.49" stroke="#1e1e1e" stroke-width="2" fill="none"/></g><g stroke-linecap="round"><path d="M16.738 23.881c1.05.16 2.61.6 3.24 1.33.63.72.68 2.06.55 3.02s-.68 1.93-1.32 2.73c-.65.81-1.55 1.97-2.56 2.11-1.01.15-2.41-.69-3.48-1.22-1.07-.54-2.55-1.05-2.93-2-.38-.94.13-2.73.65-3.68.53-.95 1.56-1.51 2.5-2 .93-.49 2.52-.91 3.1-.96.57-.06.28.55.34.63m-2.93.14c.95-.29 3.38-.57 4.35-.04.98.53 1.11 2.25 1.5 3.21.39.95 1.1 1.8.83 2.53-.26.73-1.43 1.29-2.44 1.86s-2.61 1.59-3.62 1.56-1.72-.86-2.45-1.75-1.75-2.56-1.94-3.57-.06-1.74.78-2.49c.84-.76 3.57-1.87 4.25-2.02.68-.16-.01.83-.16 1.08"/><path d="M15.448 23.591c.94-.14 2.2.02 3.07.65.87.64 1.95 2.1 2.15 3.15.19 1.05-.51 2.38-.99 3.16-.49.77-.91 1.25-1.93 1.48-1.02.24-3.04.26-4.2-.07s-2.28-1.08-2.77-1.91c-.5-.83-.42-2.11-.21-3.06s.65-2.02 1.47-2.63c.82-.62 2.81-.9 3.44-1.06.64-.16.38 0 .38.11m-1.08.23c.92-.16 2.26.15 3.21.58.96.43 2.14 1.23 2.54 2.02.4.78.15 1.74-.13 2.66-.28.93-.63 2.26-1.54 2.89-.91.64-2.69.97-3.92.93-1.22-.04-2.69-.57-3.41-1.17-.73-.6-.94-1.45-.93-2.45s.32-2.55.97-3.56 2.47-2.17 2.92-2.51-.3.19-.21.47" stroke="#1e1e1e" stroke-width="2" fill="none"/></g><g stroke-linecap="round"><path d="M16.857 37.082c.99.21 2.12 1.5 2.83 2.37.71.86 1.49 1.95 1.41 2.82-.07.88-.98 1.73-1.86 2.41s-2.4 1.57-3.41 1.68c-1 .12-1.8-.53-2.61-1.01-.8-.48-1.78-1.04-2.2-1.86-.42-.83-.73-2.2-.33-3.09.41-.9 1.75-1.82 2.76-2.29 1-.48 2.72-.46 3.29-.57.58-.11.1-.09.15-.1m-1.49-.41c1.08.1 2.29 1.22 3.23 1.78.94.55 2.11.7 2.41 1.56.3.87-.1 2.67-.62 3.6-.51.94-1.37 1.74-2.46 2.02s-3.03-.1-4.08-.34c-1.06-.24-1.59-.35-2.26-1.09-.68-.75-1.93-2.37-1.79-3.37.14-.99 1.72-1.84 2.63-2.59.9-.74 2.38-1.7 2.8-1.89.43-.19-.12.49-.24.77"/><path d="M15.917 37.172c1.06-.01 2.25.49 3.02 1.16.78.66 1.42 1.8 1.65 2.83s.24 2.52-.25 3.36-1.66 1.47-2.7 1.66c-1.04.2-2.48-.11-3.56-.48s-2.38-1.02-2.9-1.72c-.52-.71-.46-1.5-.22-2.52.25-1.01.83-2.96 1.71-3.59.88-.64 3.04-.19 3.58-.24.55-.06-.3-.16-.32-.07m-.64-.58c1.18.03 3.19 1.31 4.2 1.93 1 .61 1.8.84 1.84 1.77.03.92-1.05 2.94-1.62 3.78-.57.83-.96.93-1.82 1.24-.86.3-2.19.94-3.33.59-1.15-.36-2.89-1.9-3.53-2.74-.63-.83-.59-1.31-.31-2.26s1.29-2.9 1.99-3.45c.69-.56 1.67.28 2.16.11.48-.18.56-1.16.73-1.15" stroke="#1e1e1e" stroke-width="2" fill="none"/></g></svg>